<svg width="126" height="32" viewBox="0 0 126 32" fill="none" xmlns="http://www.w3.org/2000/svg">
<path d="M9.60712 11.3761L9.60721 9.28452C9.60721 7.93994 9.8477 6.70741 10.3287 5.58693C10.8363 4.46645 11.5311 3.50781 12.4128 2.71102C13.2946 1.88934 14.35 1.26685 15.5792 0.843554C16.835 0.395361 18.2244 0.171265 19.7475 0.171265C20.656 0.171265 21.4843 0.258414 22.2325 0.432712C23.0073 0.582109 23.6753 0.793755 24.2365 1.06765C24.7976 1.34155 25.2251 1.67769 25.519 2.07608C25.8397 2.47448 26 2.89777 26 3.34596C26 3.91865 25.7729 4.39175 25.3186 4.76524C24.8644 5.13873 24.2899 5.32548 23.5952 5.32548C23.1142 5.32548 22.6867 5.17608 22.3126 4.87729C21.9653 4.57849 21.4309 4.0307 20.7094 3.23392C20.3888 2.88532 20.0548 2.63633 19.7074 2.48693C19.3601 2.33753 18.9993 2.26283 18.6252 2.26283C17.5564 2.26283 16.7148 2.87287 16.1002 4.09295C15.4856 5.28813 15.1784 6.94396 15.1784 9.06042V11.3761C15.1784 11.3761 15.1784 12.0938 15.1784 13.0938C15.1784 14.0938 15.1784 13.4303 15.1784 14.364V24.9713C15.1784 25.9174 15.2318 26.6893 15.3387 27.2869C15.4723 27.8845 15.6994 28.3576 16.02 28.7062C16.3674 29.0548 16.8216 29.3038 17.3828 29.4532C17.9439 29.5777 18.6653 29.6524 19.5471 29.6773V31.1713H6V29.6773C6.8016 29.6524 7.44289 29.5901 7.92385 29.4905C8.40481 29.366 8.76553 29.1544 9.00601 28.8556C9.24649 28.5319 9.40681 28.0962 9.48697 27.5484C9.56713 26.9757 9.60721 26.2162 9.60721 25.2701V13.4303L9.60712 11.3761Z" fill="#212625"/>
<path d="M1.05008 6.55467C0.569693 5.63526 4.1973 3.6352 6.88179 6.84292C7.22062 7.24778 7.82583 8.44796 7.42699 9.72009C4.63675 5.72061 1.53046 7.47407 1.05008 6.55467Z" fill="#D3751E"/>
<path d="M6.88179 6.84292L7.27569 6.54415L6.88179 6.84292ZM7.42699 9.72009L7.0057 9.98306C7.11678 10.1423 7.31141 10.229 7.50587 10.2059C7.70033 10.1828 7.85996 10.054 7.91611 9.87487L7.42699 9.72009ZM7.27569 6.54415C5.80642 4.78851 4.0308 4.42358 2.66886 4.67004C2.00213 4.7907 1.42535 5.05946 1.03619 5.38947C0.842699 5.55355 0.675142 5.75028 0.579694 5.973C0.482152 6.2006 0.450524 6.48538 0.595306 6.76247L1.50485 6.34686C1.52953 6.39411 1.50618 6.41526 1.52556 6.37004C1.54704 6.31993 1.60505 6.23462 1.72603 6.13203C1.96583 5.92868 2.37367 5.72552 2.88935 5.6322C3.89224 5.45071 5.27267 5.68961 6.48789 7.14169L7.27569 6.54415ZM0.595306 6.76247C0.732006 7.0241 0.960074 7.17033 1.18606 7.24964C1.39515 7.32302 1.62806 7.34871 1.83709 7.36294C2.2983 7.39434 2.74247 7.38145 3.31011 7.46597C4.36025 7.62232 5.69898 8.11003 7.0057 9.98306L7.84828 9.45712C6.36476 7.33067 4.75523 6.69537 3.43456 6.49874C2.8168 6.40676 2.21993 6.40988 1.87642 6.38649C1.68309 6.37332 1.5727 6.35391 1.50907 6.33158C1.46233 6.31518 1.48824 6.31508 1.50485 6.34686L0.595306 6.76247ZM7.91611 9.87487C8.37709 8.40452 7.68788 7.03668 7.27569 6.54415L6.48789 7.14169C6.75336 7.45889 7.27457 8.4914 6.93787 9.56531L7.91611 9.87487Z" fill="#D3751E"/>
<path d="M16.6091 16.2882C15.6659 15.8563 17.3058 12.0523 21.3932 12.9409C21.9091 13.0531 23.123 13.6303 23.5877 14.8798C18.9314 13.4305 17.5522 16.7201 16.6091 16.2882Z" fill="#15BA9C"/>
<path d="M21.3932 12.9409L21.5212 12.4634L21.3932 12.9409ZM23.5877 14.8798L23.4161 15.3458C23.6014 15.4035 23.8083 15.3527 23.9478 15.2153C24.0873 15.0778 24.1344 14.8782 24.069 14.7023L23.5877 14.8798ZM21.5212 12.4634C19.2841 11.977 17.6576 12.7772 16.7327 13.8069C16.2799 14.3109 15.9889 14.8768 15.8838 15.3761C15.8315 15.6244 15.8197 15.8825 15.8808 16.117C15.9433 16.3566 16.0929 16.601 16.3772 16.7312L16.841 15.8452C16.8894 15.8674 16.8839 15.8984 16.8715 15.8508C16.8578 15.7981 16.8513 15.6951 16.884 15.5399C16.9488 15.2322 17.1465 14.8217 17.4967 14.4319C18.1778 13.6737 19.4149 13.0162 21.2651 13.4184L21.5212 12.4634ZM16.3772 16.7312C16.6455 16.8541 16.9154 16.8298 17.1425 16.7539C17.3527 16.6837 17.5525 16.5612 17.7263 16.4443C18.11 16.1864 18.453 15.9039 18.9533 15.6227C19.8788 15.1025 21.2355 14.6671 23.4161 15.3458L23.7593 14.4138C21.2837 13.6432 19.6226 14.128 18.4587 14.7822C17.9142 15.0883 17.4446 15.4566 17.1588 15.6487C16.998 15.7569 16.8989 15.8092 16.8349 15.8306C16.7879 15.8463 16.8084 15.8303 16.841 15.8452L16.3772 16.7312ZM24.069 14.7023C23.5319 13.258 22.1488 12.5998 21.5212 12.4634L21.2651 13.4184C21.6693 13.5063 22.7141 14.0025 23.1064 15.0574L24.069 14.7023Z" fill="#15BA9C"/>
<path d="M1.50001 15.4999C0.855364 15.5613 1.56666 11.0095 5.65659 11.2383C6.82512 11.3037 7.67137 12.2298 8.00003 13.4999C3.32345 12.73 2.14465 15.4386 1.50001 15.4999Z" fill="#E12267"/>
<path d="M5.65659 11.2383L5.70094 10.7454L5.70094 10.7454L5.65659 11.2383ZM1.50001 15.4999L1.53384 15.9914L1.53384 15.9914L1.50001 15.4999ZM8.00003 13.4999L7.90103 13.9869C8.07117 14.0149 8.24684 13.9555 8.36651 13.8294C8.48619 13.7034 8.53318 13.5283 8.49105 13.3654L8.00003 13.4999ZM5.70094 10.7454C3.41313 10.6174 2.04145 11.8467 1.35886 13.0825C1.02293 13.6908 0.845096 14.3121 0.798426 14.7965C0.77567 15.0327 0.780408 15.2728 0.838385 15.4728C0.866997 15.5715 0.919431 15.6988 1.02392 15.8059C1.14222 15.927 1.32055 16.0116 1.53384 15.9914L1.46617 15.0085C1.59888 14.9959 1.70723 15.0521 1.76712 15.1135C1.8132 15.1607 1.81881 15.1968 1.81317 15.1773C1.80263 15.141 1.78913 15.0373 1.80631 14.859C1.83951 14.5144 1.97425 14.0236 2.24681 13.5301C2.78118 12.5626 3.81012 11.6305 5.61223 11.7313L5.70094 10.7454ZM1.53384 15.9914C1.77136 15.9688 1.96203 15.8375 2.07626 15.7506C2.20271 15.6544 2.34047 15.527 2.46988 15.4088C2.74191 15.1603 3.06428 14.8699 3.49793 14.604C4.34391 14.0852 5.67879 13.621 7.90103 13.9869L8.09904 13.013C5.6447 12.6089 4.05188 13.114 2.97815 13.7725C2.45195 14.0951 2.06646 14.4452 1.79002 14.6978C1.64519 14.8301 1.54856 14.9184 1.46889 14.979C1.377 15.049 1.38982 15.0158 1.46617 15.0085L1.53384 15.9914ZM8.49105 13.3654C8.13282 11.981 7.16511 10.8273 5.70094 10.7454L5.61223 11.7313C6.48514 11.7801 7.20992 12.4786 7.50901 13.6344L8.49105 13.3654Z" fill="#E12267"/>
<path d="M34.2804 25.4467C34.2804 26.4062 34.3204 27.1689 34.4004 27.7348C34.5071 28.276 34.7071 28.6943 35.0005 28.9895C35.2938 29.2848 35.7205 29.4816 36.2805 29.58C36.8405 29.6538 37.5873 29.6907 38.5206 29.6907V31.1669H25.16V29.6907C25.96 29.6415 26.6001 29.5677 27.0801 29.4693C27.5601 29.3709 27.9201 29.1741 28.1601 28.8788C28.4002 28.5836 28.5468 28.1653 28.6002 27.6241C28.6802 27.0582 28.7202 26.3078 28.7202 25.3729V20.8705C28.7202 19.3451 28.6802 18.1272 28.6002 17.2169C28.5202 16.3066 28.3468 15.6054 28.0801 15.1133C27.8135 14.6213 27.4268 14.3014 26.9201 14.1538C26.4401 13.9816 25.8 13.8955 25 13.8955V12.6038L33.0004 11.2383L33.6404 15.4824H33.8004C34.5204 14.1784 35.4672 13.1451 36.6405 12.3824C37.8139 11.6197 39.054 11.2383 40.3607 11.2383C41.3741 11.2383 42.2008 11.4721 42.8408 11.9395C43.4809 12.407 43.8009 12.9975 43.8009 13.711C43.8009 14.4983 43.5475 15.1625 43.0408 15.7038C42.5608 16.2451 41.8941 16.5157 41.0407 16.5157C40.6407 16.5157 40.2807 16.4419 39.9607 16.2943C39.6407 16.1467 39.3473 15.9868 39.0807 15.8145C38.8406 15.6177 38.5873 15.4455 38.3206 15.2979C38.0806 15.1256 37.8273 15.0395 37.5606 15.0395C37.0539 15.0395 36.5739 15.3471 36.1205 15.9622C35.6672 16.5772 35.2938 17.4014 35.0005 18.4348C34.7871 19.1729 34.6138 20.0094 34.4804 20.9443C34.3471 21.8546 34.2804 22.7649 34.2804 23.6752V25.4467Z" fill="#212625"/>
<path d="M56.808 10.8693C58.4081 10.8693 59.9149 11.1276 61.3283 11.6443C62.7683 12.1364 64.0217 12.8252 65.0884 13.711C66.1818 14.5967 67.0352 15.6546 67.6485 16.8848C68.2886 18.0903 68.6086 19.4189 68.6086 20.8705C68.6086 22.3713 68.2886 23.7491 67.6485 25.0038C67.0352 26.2586 66.1818 27.3411 65.0884 28.2514C64.0217 29.1618 62.7683 29.8752 61.3283 30.3919C59.9149 30.9086 58.4081 31.1669 56.808 31.1669C55.2346 31.1669 53.7412 30.9209 52.3278 30.4288C50.9144 29.9122 49.6744 29.1987 48.6077 28.2883C47.5409 27.378 46.7009 26.2955 46.0875 25.0407C45.4742 23.7614 45.1675 22.3713 45.1675 20.8705C45.1675 19.4189 45.4742 18.078 46.0875 16.8479C46.7009 15.6177 47.5409 14.5598 48.6077 13.6741C49.6744 12.7883 50.9144 12.0995 52.3278 11.6074C53.7412 11.1153 55.2346 10.8693 56.808 10.8693ZM56.808 13.0098C56.008 13.0098 55.2746 13.2066 54.6079 13.6002C53.9412 13.9693 53.3679 14.4983 52.8879 15.1872C52.4345 15.876 52.0745 16.7125 51.8078 17.6967C51.5678 18.6562 51.4478 19.7264 51.4478 20.9074C51.4478 22.1375 51.5678 23.2447 51.8078 24.2288C52.0745 25.2129 52.4345 26.0495 52.8879 26.7383C53.3679 27.4272 53.9279 27.9685 54.5679 28.3622C55.2346 28.7312 55.9813 28.9157 56.808 28.9157C57.6347 28.9157 58.3814 28.7312 59.0481 28.3622C59.7415 27.9685 60.3282 27.4272 60.8082 26.7383C61.2882 26.0249 61.6616 25.176 61.9283 24.1919C62.195 23.2078 62.3283 22.1129 62.3283 20.9074C62.3283 19.7264 62.195 18.6562 61.9283 17.6967C61.6616 16.7372 61.2882 15.9129 60.8082 15.2241C60.3282 14.5106 59.7415 13.9693 59.0481 13.6002C58.3814 13.2066 57.6347 13.0098 56.808 13.0098Z" fill="#212625"/>
<path d="M80.3754 25.1514C80.3754 26.1602 80.402 26.9598 80.4554 27.5502C80.5354 28.1161 80.6821 28.559 80.8954 28.8788C81.1354 29.1741 81.4821 29.3709 81.9355 29.4693C82.4155 29.5677 83.0555 29.6415 83.8555 29.6907V31.1669H71.255V29.6907C72.0283 29.6415 72.6417 29.5677 73.095 29.4693C73.5751 29.3709 73.9351 29.1741 74.1751 28.8788C74.4418 28.5836 74.6151 28.1653 74.6951 27.6241C74.7751 27.0828 74.8151 26.3447 74.8151 25.4098V20.7967C74.8151 19.3451 74.7885 18.1764 74.7351 17.2907C74.6818 16.3804 74.6151 15.7653 74.5351 15.4455C74.4551 15.1256 74.3484 14.8673 74.2151 14.6705C74.0818 14.4491 73.8817 14.2891 73.6151 14.1907C73.3484 14.0677 73.015 13.9939 72.615 13.9693C72.215 13.9201 71.7083 13.8955 71.0949 13.8955V12.6407L78.8153 11.2383L79.3353 14.486H79.4953C80.3754 13.4526 81.4154 12.653 82.6155 12.0872C83.8155 11.5213 85.1356 11.2383 86.5757 11.2383C88.2824 11.2383 89.6558 11.4598 90.6959 11.9026C91.7626 12.3209 92.7093 13.0344 93.536 14.0431C93.9893 14.609 94.3894 15.3471 94.736 16.2574C95.0827 17.1431 95.2561 18.3733 95.2561 19.9479V25.1514C95.2561 26.1602 95.2827 26.9598 95.3361 27.5502C95.4161 28.1161 95.5628 28.559 95.7761 28.8788C96.0161 29.1741 96.3628 29.3709 96.8161 29.4693C97.2695 29.5677 97.8829 29.6415 98.6562 29.6907V31.1669H86.1356V29.6907C86.9357 29.6661 87.5624 29.6046 88.0157 29.5062C88.4958 29.3832 88.8558 29.1741 89.0958 28.8788C89.3358 28.5836 89.4958 28.1653 89.5758 27.6241C89.6558 27.0582 89.6958 26.3201 89.6958 25.4098V20.3907C89.6958 19.136 89.6158 18.078 89.4558 17.2169C89.2958 16.3558 89.0291 15.6669 88.6558 15.1502C88.3091 14.609 87.8424 14.2276 87.2557 14.0062C86.669 13.7602 85.9356 13.6372 85.0556 13.6372C84.2022 13.6372 83.4689 13.8586 82.8555 14.3014C82.2421 14.7443 81.7088 15.3594 81.2554 16.1467C81.0154 16.5895 80.8021 17.1677 80.6154 17.8812C80.4554 18.5701 80.3754 19.2959 80.3754 20.0586V25.1514Z" fill="#212625"/>
<path d="M118.4 28.3991H118.24C116.4 30.2197 114.013 31.13 111.079 31.13C109.559 31.13 108.159 30.884 106.879 30.3919C105.626 29.8998 104.532 29.211 103.599 28.3252C102.692 27.4395 101.986 26.3939 101.479 25.1883C100.972 23.9582 100.719 22.605 100.719 21.1288C100.719 19.6526 100.972 18.2871 101.479 17.0324C102.012 15.7776 102.719 14.6951 103.599 13.7848C104.506 12.8498 105.572 12.1241 106.799 11.6074C108.052 11.0907 109.399 10.8324 110.839 10.8324C112.173 10.8324 113.346 11.0169 114.359 11.386C115.4 11.755 116.306 12.3824 117.08 13.2681H117.24V10.1312C117.24 8.67961 117.213 7.43715 117.16 6.40381C117.133 5.34588 117.08 4.65699 117 4.33715C116.866 3.82048 116.453 3.45143 115.76 3.23C115.093 2.98397 114.053 2.86096 112.639 2.86096V1.6062L122.76 0.130005V21.2395C122.76 23.0848 122.773 24.5118 122.8 25.5205C122.853 26.5046 122.933 27.255 123.04 27.7717C123.093 28.0915 123.173 28.3498 123.28 28.5467C123.387 28.7435 123.547 28.9034 123.76 29.0264C123.973 29.1248 124.253 29.1987 124.6 29.2479C124.973 29.2725 125.44 29.2848 126 29.2848V30.7241L118.4 31.13V28.3991ZM117.16 20.1693C117.16 19.2344 117.053 18.3733 116.84 17.586C116.626 16.7741 116.306 16.0606 115.88 15.4455C115.4 14.732 114.786 14.1907 114.039 13.8217C113.293 13.4526 112.493 13.2681 111.639 13.2681C110.066 13.2681 108.866 13.9324 108.039 15.261C107.212 16.5895 106.799 18.5209 106.799 21.055C106.799 23.6137 107.212 25.582 108.039 26.9598C108.866 28.3375 110.053 29.0264 111.599 29.0264C112.479 29.0264 113.319 28.8173 114.119 28.3991C114.919 27.9808 115.573 27.4149 116.08 26.7014C116.453 26.1602 116.72 25.4959 116.88 24.7086C117.066 23.8967 117.16 22.8633 117.16 21.6086V20.1693Z" fill="#212625"/>
<ellipse cx="19.35" cy="30.4197" rx="1" ry="0.751515" fill="#212625"/>
<ellipse cx="6" cy="30.4197" rx="1" ry="0.751515" fill="#212625"/>
</svg>
